# xmcd
#
# Track frame offsets:
#	150
#	21882
#	49794
#	73535
#	94157
#	115187
#	144049
#	169118
#	186718
#	205526
#	225963
#	260312
#
# Disc length: 3725 seconds
#
# Revision: 5
# Processed by: cddbd v1.5.2PL0 Copyright (c) Steve Scherf et al.
# Submitted via: EZCDAudioConverter 8.0.2.1
#
DISCID=9a0e8b0c
DTITLE=Khánh Hoàng - Chàng Bolero
DYEAR=2016
DGENRE=
TTITLE0=Khánh Hoàng - Tương tư nàng ca sĩ
TTITLE1=Khánh Hoàng - Trộm nhìn nhau
TTITLE2=Khánh Hoàng - Chuyện tình không dĩ vãng
TTITLE3=Khánh Hoàng - Từ lúc em đi
TTITLE4=Khánh Hoàng - Những lời này cho em
TTITLE5=Khánh Hoàng - Duyên phận
TTITLE6=Khánh Hoàng, Phú Quý - Giận em
TTITLE7=Khánh Hoàng - Gặp nhau làm ngơ
TTITLE8=Khánh Hoàng - Bài tango tím
TTITLE9=Khánh Hoàng - Thương lắm mình ơi
TTITLE10=Khánh Hoàng, Uyên Trang - LK  Chị ơi, Chị đi tim em
TTITLE11=Khánh Hoàng - Tình Bolero
EXTD=
EXTT0=
EXTT1=
EXTT2=
EXTT3=
EXTT4=
EXTT5=
EXTT6=
EXTT7=
EXTT8=
EXTT9=
EXTT10=
EXTT11=
PLAYORDER=
